# xmcd
#
# Track frame offsets:
#	183
#	13463
#	23553
#	36120
#	46673
#	59790
#	77190
#	88370
#	101500
#	118888
#	129760
#	142365
#	154223
#	165228
#	179485
#	193510
#
# Disc length: 2744 seconds
#
# Revision: 3
# Processed by: cddbd v1.5.2PL0 Copyright (c) Steve Scherf et al.
# Submitted via: audiograbber 1.83.01
#
DISCID=de0ab610
DTITLE=Crystal Gayle - Country Girl
DYEAR=1988
DGENRE=Country
TTITLE0=Why have you left the one you left me for
TTITLE1=Wrong road again
TTITLE2=When i dream
TTITLE3=They come out at night
TTITLE4=Wayward wind
TTITLE5=You never miss a real good thing (till he says goodbye)
TTITLE6=Forgettin' 'bout you
TTITLE7=I'll do it all over again
TTITLE8=Someday soon
TTITLE9=Ready for the times to get better
TTITLE10=I still miss someone
TTITLE11=Sweet baby on my mind
TTITLE12=Somebody loves you
TTITLE13=We should be together
TTITLE14=River road
TTITLE15=This is my year for mexico
EXTD=
EXTT0=
EXTT1=
EXTT2=
EXTT3=
EXTT4=
EXTT5=
EXTT6=
EXTT7=
EXTT8=
EXTT9=
EXTT10=
EXTT11=
EXTT12=
EXTT13=
EXTT14=
EXTT15=
PLAYORDER=
